<?xml version="1.0" standalone="no"?>
<!DOCTYPE svg PUBLIC "-//W3C//DTD SVG 20010904//EN"
 "http://www.w3.org/TR/2001/REC-SVG-20010904/DTD/svg10.dtd">
<svg version="1.0" xmlns="http://www.w3.org/2000/svg"
 width="360.000000pt" height="360.000000pt" viewBox="0 0 360.000000 360.000000"
 preserveAspectRatio="xMidYMid meet">

<g transform="translate(0.000000,360.000000) scale(0.100000,-0.100000)"
fill="#000000" stroke="none">
<path d="M1360 2364 c-19 -2 -80 -9 -135 -15 -199 -21 -393 -85 -531 -175 -47
-30 -75 -40 -134 -48 -72 -11 -76 -13 -92 -46 -40 -80 -10 -191 76 -280 41
-42 56 -67 65 -105 15 -59 44 -110 77 -131 35 -24 149 -9 181 22 l23 23 377
-94 c207 -52 386 -95 398 -95 13 0 27 -12 39 -35 31 -57 95 -113 156 -136 50
-20 61 -20 128 -9 163 26 201 49 232 140 l17 51 21 -35 21 -36 74 0 c44 0 89
-6 111 -15 20 -8 63 -22 96 -29 l60 -14 78 55 c99 71 213 167 277 233 28 28
71 63 98 77 37 21 49 33 56 62 23 93 24 89 -14 113 -27 18 -35 30 -35 54 0 23
5 33 19 37 24 6 39 76 19 88 -29 19 -200 69 -303 88 -61 12 -168 27 -238 35
-100 11 -131 18 -141 32 -11 14 -33 18 -117 22 -57 2 -128 0 -158 -6 l-54 -10
-143 79 c-117 65 -154 81 -210 89 -76 11 -339 21 -394 14z m135 -34 c-11 -5
-35 -9 -54 -9 -19 -1 -62 -6 -97 -12 l-62 -11 62 -63 c33 -34 79 -88 101 -119
l40 -57 45 8 c73 13 326 7 455 -11 161 -23 486 -89 615 -125 l105 -30 120 29
c66 16 146 34 178 40 37 8 57 16 57 26 0 16 9 18 29 5 16 -11 -2 -51 -24 -51
-7 0 -15 -7 -17 -16 -2 -10 -37 -29 -96 -50 -92 -33 -94 -33 -125 -17 -24 13
-57 18 -130 18 -66 0 -89 -2 -70 -8 15 -4 54 -6 85 -3 39 4 68 1 93 -10 l37
-15 -37 -37 c-81 -81 -107 -164 -55 -170 20 -2 271 88 288 103 2 2 9 24 15 49
12 45 13 46 35 31 44 -32 23 -104 -40 -136 -24 -11 -56 -33 -73 -48 -57 -52
-121 -70 -311 -88 -140 -13 -192 -14 -248 -5 -39 6 -72 9 -74 7 -2 -2 22 -11
54 -21 56 -16 162 -15 272 2 25 4 37 1 47 -13 13 -17 15 -17 57 3 66 32 149
63 143 54 -8 -12 -235 -147 -280 -166 -28 -11 -67 -15 -144 -14 -58 1 -126 -2
-151 -5 l-46 -7 -26 49 c-28 52 -86 196 -113 283 -10 30 -20 61 -23 69 -4 12
17 13 134 9 76 -3 130 -2 119 2 -18 7 -192 28 -370 46 l-60 6 50 -25 c43 -21
135 -104 135 -123 0 -4 -21 12 -46 36 -111 102 -306 137 -414 74 -63 -38 -92
-125 -79 -239 4 -33 6 -61 5 -63 -2 -1 -36 5 -77 14 -41 8 -180 37 -309 64
-129 27 -253 53 -275 57 -30 7 -41 14 -43 31 -2 12 -8 20 -13 16 -18 -11 -57
37 -94 113 -41 82 -84 122 -142 130 -50 7 -83 -19 -92 -73 l-7 -39 -32 49
c-35 55 -48 118 -35 173 l9 38 74 11 c60 9 88 19 142 53 60 38 218 114 225
108 1 -2 -4 -21 -11 -42 -24 -72 -28 -112 -12 -128 20 -19 253 -33 489 -28
l37 1 -40 53 c-52 66 -139 156 -165 170 -11 6 -51 10 -90 10 -124 -1 -28 16
235 40 76 8 136 6 115 -3z m570 -156 c9 -4 20 -17 25 -29 9 -25 30 -31 155
-45 55 -7 90 -6 117 2 46 14 168 1 303 -32 88 -22 223 -75 213 -85 -2 -3 -70
6 -151 20 -124 20 -347 50 -527 69 -108 12 -429 28 -477 24 -29 -3 -51 -3 -49
-1 6 6 198 50 292 67 43 8 80 15 81 15 1 1 9 -2 18 -5z m-777 -41 c13 -8 21
-20 19 -26 -6 -20 -50 -37 -95 -37 -36 0 -44 4 -52 25 -11 30 -4 52 18 58 26
7 84 -4 110 -20z m-586 -290 c51 -58 69 -175 35 -226 -31 -48 -70 -30 -103 48
-18 45 -21 143 -5 174 14 26 52 28 73 4z m1217 -133 c109 -55 164 -221 112
-337 -60 -131 -232 -96 -303 63 -39 90 -32 183 19 244 45 54 106 64 172 30z"/>
<path d="M860 2034 c-6 -14 -10 -37 -10 -51 l0 -26 -92 6 c-51 4 -127 9 -168
12 l-75 4 80 -13 c44 -7 119 -19 166 -25 l86 -13 6 -56 c4 -32 9 -71 13 -89 6
-29 4 -31 -17 -27 -22 5 -22 4 4 -11 15 -8 27 -21 27 -28 0 -9 2 -9 8 1 7 9
15 10 35 3 90 -35 312 -51 417 -31 29 6 55 8 57 6 3 -2 11 -26 18 -53 15 -54
19 -39 6 20 -8 32 -6 39 7 44 52 17 148 67 205 106 36 24 83 48 104 53 30 6 1
11 -142 23 l-180 16 2 40 2 40 -11 -37 c-7 -26 -16 -38 -28 -38 -25 0 -390 30
-420 35 -14 2 -42 4 -62 4 -35 1 -38 3 -38 30 0 16 4 41 10 55 5 14 7 26 5 26
-3 0 -10 -12 -15 -26z m270 -145 c85 -12 178 -24 205 -28 l50 -6 0 -50 0 -50
-50 -13 c-78 -20 -249 -26 -346 -13 -47 7 -90 16 -96 19 -10 7 -33 117 -33
159 0 18 4 19 58 12 31 -5 127 -18 212 -30z m368 -54 c13 -12 -49 -65 -77 -65
-6 0 -11 18 -11 41 l0 41 43 -7 c23 -4 43 -8 45 -10z"/>
<path d="M1421 2004 c0 -11 3 -14 6 -6 3 7 2 16 -1 19 -3 4 -6 -2 -5 -13z"/>
<path d="M2318 1953 c7 -3 16 -2 19 1 4 3 -2 6 -13 5 -11 0 -14 -3 -6 -6z"/>
<path d="M2358 1943 c7 -3 16 -2 19 1 4 3 -2 6 -13 5 -11 0 -14 -3 -6 -6z"/>
<path d="M2415 1930 c11 -5 29 -8 40 -8 16 0 15 2 -5 8 -34 11 -60 11 -35 0z"/>
<path d="M2488 1913 c7 -3 16 -2 19 1 4 3 -2 6 -13 5 -11 0 -14 -3 -6 -6z"/>
<path d="M2528 1903 c7 -3 16 -2 19 1 4 3 -2 6 -13 5 -11 0 -14 -3 -6 -6z"/>
<path d="M2568 1893 c7 -3 16 -2 19 1 4 3 -2 6 -13 5 -11 0 -14 -3 -6 -6z"/>
<path d="M2605 1814 c-96 -13 -101 -15 -132 -50 -18 -20 -40 -56 -49 -80 -30
-79 -3 -85 243 -57 48 5 51 7 42 25 -14 26 4 77 47 133 l34 45 -43 -1 c-23 -1
-87 -7 -142 -15z"/>
<path d="M2381 1732 c-27 -53 -44 -123 -33 -134 6 -6 11 10 15 41 3 27 15 68
27 90 11 23 18 41 15 41 -2 0 -13 -17 -24 -38z"/>
<path d="M641 1803 c-28 -101 49 -248 90 -171 16 30 5 130 -18 170 -10 18 -29
34 -40 36 -18 3 -24 -4 -32 -35z m59 -20 c0 -7 3 -13 8 -13 4 0 7 -18 7 -40 0
-22 -2 -40 -6 -40 -3 0 -5 -12 -3 -27 2 -16 1 -22 -2 -14 -5 11 -8 11 -15 0
-6 -10 -9 -8 -9 9 0 12 -5 22 -11 22 -7 0 -9 9 -6 22 3 12 2 30 -4 40 -7 13
-6 18 2 18 6 0 9 8 6 19 -3 15 0 19 14 18 11 -1 19 -7 19 -14z"/>
<path d="M1803 1690 c-18 -10 -39 -33 -48 -49 -17 -35 -20 -136 -4 -178 30
-82 103 -143 170 -143 45 0 104 61 114 118 16 94 -40 213 -117 251 -55 26 -74
26 -115 1z m149 -105 c17 4 29 3 26 -1 -2 -5 -10 -21 -17 -36 -12 -24 -11 -29
9 -55 20 -26 21 -28 3 -31 -39 -7 -41 -10 -33 -51 9 -48 5 -50 -23 -15 l-20
26 -18 -33 c-17 -32 -18 -33 -19 -9 -1 54 -9 67 -42 62 l-31 -5 21 34 21 35
-25 32 -25 32 31 0 31 0 -6 48 -6 47 20 -25 c11 -14 21 -29 21 -35 1 -5 11 8
23 30 l22 40 3 -48 c3 -48 3 -48 34 -42z"/>
</g>
</svg>
